<svg xmlns="http://www.w3.org/2000/svg" xmlns:xlink="http://www.w3.org/1999/xlink" version="1.1" x="0px" y="0px" viewBox="0 0 95 95" enable-background="new 0 0 95 95" xml:space="preserve"><path fill="#841617" d="M47.5,8.396C25.904,8.396,8.396,25.903,8.396,47.5c0,16.187,9.836,30.077,23.857,36.019l1.572-29.92h-0.395  c-3.441,0-6.23-2.79-6.23-6.231l1.557-24.691c0-0.34,0.277-0.616,0.617-0.616c0.342,0,0.617,0.276,0.617,0.616l-0.299,22.433  c0,0.817,0.611,1.48,1.363,1.48s1.363-0.663,1.363-1.48l0.936-22.433h0.004c0.023-0.344,0.307-0.616,0.656-0.616  s0.635,0.272,0.658,0.616l0.316,22.433c0,0.817,0.609,1.48,1.363,1.48c0.752,0,1.363-0.663,1.363-1.48l0.311-22.433h0.004  c0.023-0.344,0.309-0.616,0.658-0.616s0.635,0.272,0.658,0.616l0.939,22.433c0,0.817,0.609,1.48,1.363,1.48  c0.752,0,1.361-0.663,1.361-1.48l-0.299-22.433c0-0.34,0.277-0.616,0.617-0.616c0.342,0,0.617,0.276,0.617,0.616l1.559,24.691  c0,3.441-2.791,6.231-6.232,6.231h-0.393l1.701,32.381c2.246,0.401,4.557,0.623,6.918,0.623c3.803,0,7.475-0.553,10.951-1.565  l0.768-14.78h-4.658c0-26.618,5.133-48.197,11.463-48.197l0.025,47.914l0.602,11.615C78.557,74.886,86.604,62.137,86.604,47.5  C86.604,25.903,69.098,8.396,47.5,8.396z"/><!--text x="0" y="110" fill="#000000" font-size="5px" font-weight="bold" font-family="'Helvetica Neue', Helvetica, Arial-Unicode, Arial, Sans-serif">Created by Guilherme Furtado</text><text x="0" y="115" fill="#000000" font-size="5px" font-weight="bold" font-family="'Helvetica Neue', Helvetica, Arial-Unicode, Arial, Sans-serif">from the Noun Project</text--></svg>